<svg width="64" height="64" viewBox="0 0 64 64" fill="none" xmlns="http://www.w3.org/2000/svg">
  <defs>
    <linearGradient id="cleanCodeGradient" x1="0%" y1="0%" x2="100%" y2="100%">
      <stop offset="0%" style="stop-color:#10B981;stop-opacity:1" />
      <stop offset="100%" style="stop-color:#059669;stop-opacity:1" />
    </linearGradient>
    <filter id="shadow" x="-20%" y="-20%" width="140%" height="140%">
      <feDropShadow dx="2" dy="2" stdDeviation="3" flood-color="#000000" flood-opacity="0.3"/>
    </filter>
  </defs>
  
  <!-- Background Circle -->
  <circle cx="32" cy="32" r="30" fill="url(#cleanCodeGradient)" filter="url(#shadow)"/>
  
  <!-- Code Editor Window -->
  <rect x="12" y="16" width="40" height="32" rx="4" fill="#1F2937" stroke="#374151" stroke-width="1"/>
  
  <!-- Window Header -->
  <rect x="12" y="16" width="40" height="6" rx="4" fill="#374151"/>
  <circle cx="16" cy="19" r="1" fill="#EF4444"/>
  <circle cx="20" cy="19" r="1" fill="#F59E0B"/>
  <circle cx="24" cy="19" r="1" fill="#10B981"/>
  
  <!-- Clean Code Lines -->
  <rect x="16" y="26" width="24" height="2" rx="1" fill="#10B981" opacity="0.8"/>
  <rect x="16" y="30" width="18" height="2" rx="1" fill="#10B981" opacity="0.6"/>
  <rect x="20" y="34" width="16" height="2" rx="1" fill="#10B981" opacity="0.8"/>
  <rect x="20" y="38" width="12" height="2" rx="1" fill="#10B981" opacity="0.6"/>
  <rect x="16" y="42" width="20" height="2" rx="1" fill="#10B981" opacity="0.8"/>
  
  <!-- Sparkle Effects -->
  <path d="M46 12 L48 16 L52 14 L48 18 L46 12 Z" fill="#FFFFFF" opacity="0.8"/>
  <path d="M8 48 L10 52 L14 50 L10 54 L8 48 Z" fill="#FFFFFF" opacity="0.6"/>
  <circle cx="54" cy="48" r="1.5" fill="#FFFFFF" opacity="0.7"/>
  <circle cx="10" cy="20" r="1" fill="#FFFFFF" opacity="0.5"/>
</svg>